<svg xmlns="http://www.w3.org/2000/svg" shape-rendering="geometricPrecision" text-rendering="geometricPrecision" image-rendering="optimizeQuality" fill-rule="evenodd" clip-rule="evenodd" viewBox="0 0 512 496.62"><path fill-rule="nonzero" d="M310.39 385.78h-91.37c-101.71 0-156.18-22.31-188.57-73.12C1.01 266.49 0 209.09 0 127.09V0h115.33v127.09c0 62.54.42 105.72 11.98 123.87 8.62 13.52 34.89 19.49 91.71 19.49h90.4c-2.65-25.48-6.71-53.73-11.96-88l-.02-.3c-.57-4.13.22-8.07 1.93-11.46 1.9-3.71 4.9-6.78 8.34-8.64l.62-.3c3.34-1.66 7.23-2.45 11.04-2l.47.07c3.59.45 7.13 2.01 10.3 4.73l176.02 153.46c1.71 1.83 3.14 3.74 4.16 5.99 1.19 2.6 1.81 5.55 1.66 8.91-.18 2.9-.9 5.6-2.08 7.95l-.23.42a19.478 19.478 0 0 1-4.85 5.97L329.05 492.64c-3.31 2.47-6.95 3.71-10.57 3.94l-.3.02c-4.01.17-7.99-.87-11.36-2.87a19.629 19.629 0 0 1-7.82-8.77l-.23-.52c-1.31-3.24-1.83-7.08-1.11-11.06 6.14-34.1 10.3-62.23 12.73-87.6z"/></svg>